%FSLAX23Y23*%
%MOIN*%
G70*
G01*
G75*
G04 Layer_Physical_Order=1*
G04 Layer_Color=255*
%ADD10R,0.035X0.031*%
%ADD11R,0.118X0.059*%
%ADD12R,0.118X0.039*%
%ADD13C,0.010*%
%ADD14C,0.060*%
%ADD15C,0.039*%
%ADD16C,0.236*%
G36*
X1420Y815D02*
Y-60D01*
X-15D01*
X-30Y-75D01*
X-35Y-73D01*
X-30Y835D01*
X1380D01*
X1390Y845D01*
X1420Y815D01*
D02*
G37*
%LPC*%
G36*
X1360Y826D02*
X0D01*
X-11Y821D01*
X-16Y810D01*
Y0D01*
X-11Y-11D01*
X0Y-16D01*
X1360D01*
X1371Y-11D01*
X1376Y0D01*
Y810D01*
X1371Y821D01*
X1360Y826D01*
D02*
G37*
%LPD*%
G36*
X1344Y16D02*
X16D01*
Y794D01*
X1344D01*
Y16D01*
D02*
G37*
%LPC*%
G36*
X1129Y474D02*
X1065D01*
Y449D01*
X1129D01*
Y474D01*
D02*
G37*
G36*
X1055D02*
X991D01*
Y449D01*
X1055D01*
Y474D01*
D02*
G37*
G36*
X170Y296D02*
X120Y286D01*
X78Y257D01*
X49Y215D01*
X39Y165D01*
X49Y115D01*
X78Y73D01*
X120Y44D01*
X170Y34D01*
X220Y44D01*
X262Y73D01*
X291Y115D01*
X301Y165D01*
X291Y215D01*
X262Y257D01*
X220Y286D01*
X170Y296D01*
D02*
G37*
G36*
X450Y494D02*
X414D01*
X424Y468D01*
X450Y458D01*
Y494D01*
D02*
G37*
G36*
X175Y776D02*
X125Y766D01*
X83Y737D01*
X54Y695D01*
X44Y645D01*
X54Y595D01*
X83Y553D01*
X125Y524D01*
X175Y514D01*
X225Y524D01*
X267Y553D01*
X296Y595D01*
X306Y645D01*
X296Y695D01*
X267Y737D01*
X225Y766D01*
X175Y776D01*
D02*
G37*
G36*
X1326Y605D02*
X1188D01*
Y526D01*
X1326D01*
Y605D01*
D02*
G37*
G36*
X678Y628D02*
X655D01*
Y603D01*
X645D01*
Y628D01*
X622D01*
Y619D01*
X608D01*
X596Y614D01*
X527Y545D01*
X485D01*
X474Y541D01*
X469Y536D01*
X460Y540D01*
Y504D01*
X496D01*
X494Y509D01*
X497Y513D01*
X534D01*
X546Y518D01*
X614Y586D01*
X622D01*
Y577D01*
X622Y577D01*
X622Y573D01*
X622D01*
Y522D01*
X634D01*
Y508D01*
X622D01*
Y457D01*
X622Y457D01*
X622Y453D01*
X622D01*
Y423D01*
X614Y415D01*
X610Y403D01*
Y397D01*
X492D01*
X486Y412D01*
X455Y424D01*
X424Y412D01*
X412Y381D01*
X424Y350D01*
X455Y338D01*
X486Y350D01*
X492Y365D01*
X626D01*
X630Y366D01*
X634Y363D01*
Y323D01*
X622D01*
Y272D01*
X622Y272D01*
X622Y268D01*
X622D01*
Y217D01*
X653D01*
X656Y214D01*
D01*
X656D01*
Y214D01*
D01*
X656D01*
Y214D01*
X656D01*
Y214D01*
D01*
X656D01*
Y214D01*
X667Y209D01*
X1115D01*
X1126Y214D01*
X1183Y270D01*
X1188Y268D01*
Y195D01*
X1326D01*
Y274D01*
X1194D01*
X1192Y279D01*
X1211Y299D01*
X1216Y310D01*
Y385D01*
X1211Y396D01*
X1196Y411D01*
X1185Y416D01*
X1129D01*
Y430D01*
X991D01*
Y370D01*
X1129D01*
Y384D01*
X1178D01*
X1184Y378D01*
Y317D01*
X1108Y241D01*
X678D01*
Y268D01*
D01*
Y268D01*
X678Y268D01*
Y272D01*
X678D01*
Y323D01*
X666D01*
Y402D01*
X678D01*
Y439D01*
X828D01*
X957Y310D01*
X957Y310D01*
X957D01*
X957Y310D01*
X957D01*
Y310D01*
D01*
D01*
D01*
D01*
X957D01*
Y310D01*
D01*
X969Y305D01*
X991D01*
Y292D01*
X1129D01*
Y351D01*
X991D01*
Y337D01*
X975D01*
X846Y466D01*
X835Y471D01*
X684D01*
X678Y478D01*
Y508D01*
X666D01*
Y522D01*
X678D01*
Y569D01*
X943D01*
X999Y513D01*
X997Y508D01*
X991D01*
Y484D01*
X1055D01*
Y508D01*
X1050D01*
X961Y596D01*
X950Y601D01*
X678D01*
Y628D01*
D02*
G37*
G36*
X496Y494D02*
X460D01*
Y458D01*
X486Y468D01*
X496Y494D01*
D02*
G37*
G36*
X1129Y508D02*
X1065D01*
Y484D01*
X1129D01*
Y508D01*
D02*
G37*
G36*
X450Y540D02*
X424Y530D01*
X414Y504D01*
X450D01*
Y540D01*
D02*
G37*
%LPD*%
D10*
X650Y242D02*
D03*
Y298D02*
D03*
X650Y483D02*
D03*
Y427D02*
D03*
Y603D02*
D03*
Y547D02*
D03*
D11*
X1257Y235D02*
D03*
Y565D02*
D03*
D12*
X1060Y479D02*
D03*
Y321D02*
D03*
Y400D02*
D03*
Y479D02*
D03*
D13*
X534Y529D02*
X608Y603D01*
X650D01*
X668Y585D02*
X950D01*
X650Y483D02*
Y547D01*
X455Y499D02*
X485Y529D01*
X534D01*
X650Y483D02*
X678Y455D01*
X835D01*
X626Y403D02*
X650Y427D01*
X650Y295D02*
Y420D01*
X626Y381D02*
Y403D01*
X650Y242D02*
X667Y225D01*
X1115D01*
X950Y585D02*
X1056Y479D01*
X1060Y400D02*
X1185D01*
X1200Y385D01*
Y310D02*
Y385D01*
X1115Y225D02*
X1200Y310D01*
X455Y381D02*
X626D01*
X969Y321D02*
X1060D01*
X835Y455D02*
X969Y321D01*
D14*
X455Y499D02*
D03*
Y381D02*
D03*
D15*
X112Y708D02*
D03*
X238D02*
D03*
X175Y734D02*
D03*
X86Y645D02*
D03*
X112Y582D02*
D03*
X175Y556D02*
D03*
X238Y582D02*
D03*
X264Y645D02*
D03*
X259Y165D02*
D03*
X233Y102D02*
D03*
X170Y76D02*
D03*
X107Y102D02*
D03*
X81Y165D02*
D03*
X170Y254D02*
D03*
X233Y228D02*
D03*
X107D02*
D03*
D16*
X175Y645D02*
D03*
X170Y165D02*
D03*
M02*
