%FSLAX23Y23*%
%MOIN*%
G70*
G01*
G75*
G04 Layer_Color=8388736*
%ADD10R,0.035X0.031*%
%ADD11R,0.118X0.059*%
%ADD12R,0.118X0.039*%
%ADD13C,0.010*%
%ADD14C,0.060*%
%ADD15C,0.039*%
%ADD16C,0.236*%
%ADD17C,0.004*%
%ADD18C,0.000*%
%ADD19R,0.023X0.043*%
%ADD20C,0.059*%
%ADD21R,0.043X0.039*%
%ADD22R,0.126X0.067*%
%ADD23R,0.126X0.047*%
%ADD24C,0.068*%
D13*
X400Y725D02*
Y751D01*
X413Y764D01*
X426Y751D01*
Y725D01*
Y745D01*
X400D01*
X439Y725D02*
Y751D01*
X459D01*
X466Y745D01*
Y725D01*
X485Y751D02*
X498D01*
X505Y745D01*
Y725D01*
X485D01*
X479Y732D01*
X485Y738D01*
X505D01*
X518Y725D02*
X531D01*
X525D01*
Y764D01*
X518D01*
X557Y725D02*
X571D01*
X577Y732D01*
Y745D01*
X571Y751D01*
X557D01*
X551Y745D01*
Y732D01*
X557Y725D01*
X603Y712D02*
X610D01*
X616Y718D01*
Y751D01*
X597D01*
X590Y745D01*
Y732D01*
X597Y725D01*
X616D01*
X669D02*
Y751D01*
X682Y764D01*
X695Y751D01*
Y725D01*
Y745D01*
X669D01*
X708Y725D02*
Y751D01*
X715D01*
X721Y745D01*
Y725D01*
Y745D01*
X728Y751D01*
X735Y745D01*
Y725D01*
X748Y764D02*
Y725D01*
X767D01*
X774Y732D01*
Y738D01*
Y745D01*
X767Y751D01*
X748D01*
X787Y725D02*
X800D01*
X794D01*
Y751D01*
X787D01*
X839Y725D02*
X826D01*
X820Y732D01*
Y745D01*
X826Y751D01*
X839D01*
X846Y745D01*
Y738D01*
X820D01*
X859Y725D02*
Y751D01*
X879D01*
X885Y745D01*
Y725D01*
X905Y758D02*
Y751D01*
X899D01*
X912D01*
X905D01*
Y732D01*
X912Y725D01*
X400Y709D02*
Y670D01*
X426D01*
X439D02*
X452D01*
X446D01*
Y696D01*
X439D01*
X485Y657D02*
X492D01*
X498Y663D01*
Y696D01*
X479D01*
X472Y690D01*
Y677D01*
X479Y670D01*
X498D01*
X512Y709D02*
Y670D01*
Y690D01*
X518Y696D01*
X531D01*
X538Y690D01*
Y670D01*
X557Y703D02*
Y696D01*
X551D01*
X564D01*
X557D01*
Y677D01*
X564Y670D01*
X649Y703D02*
X643Y709D01*
X630D01*
X623Y703D01*
Y696D01*
X630Y690D01*
X643D01*
X649Y683D01*
Y677D01*
X643Y670D01*
X630D01*
X623Y677D01*
X682Y670D02*
X669D01*
X662Y677D01*
Y690D01*
X669Y696D01*
X682D01*
X689Y690D01*
Y683D01*
X662D01*
X702Y670D02*
Y696D01*
X721D01*
X728Y690D01*
Y670D01*
X741D02*
X761D01*
X767Y677D01*
X761Y683D01*
X748D01*
X741Y690D01*
X748Y696D01*
X767D01*
X787Y670D02*
X800D01*
X807Y677D01*
Y690D01*
X800Y696D01*
X787D01*
X780Y690D01*
Y677D01*
X787Y670D01*
X820Y696D02*
Y670D01*
Y683D01*
X826Y690D01*
X833Y696D01*
X839D01*
D15*
X112Y708D02*
D03*
X238D02*
D03*
X175Y734D02*
D03*
X86Y645D02*
D03*
X112Y582D02*
D03*
X175Y556D02*
D03*
X238Y582D02*
D03*
X264Y645D02*
D03*
X259Y165D02*
D03*
X233Y102D02*
D03*
X170Y76D02*
D03*
X107Y102D02*
D03*
X81Y165D02*
D03*
X170Y254D02*
D03*
X233Y228D02*
D03*
X107D02*
D03*
D16*
X175Y645D02*
D03*
X170Y165D02*
D03*
D20*
X264Y645D02*
G03*
X264Y645I-89J0D01*
G01*
X259Y165D02*
G03*
X259Y165I-89J0D01*
G01*
D21*
X650Y242D02*
D03*
Y298D02*
D03*
X650Y483D02*
D03*
Y427D02*
D03*
Y603D02*
D03*
Y547D02*
D03*
D22*
X1257Y235D02*
D03*
Y565D02*
D03*
D23*
X1060Y479D02*
D03*
Y321D02*
D03*
Y400D02*
D03*
Y479D02*
D03*
D24*
X455Y499D02*
D03*
Y381D02*
D03*
M02*
